<svg width="120" height="120" viewBox="0 0 120 120" fill="none" xmlns="http://www.w3.org/2000/svg">
<g clip-path="url(#clip0_5_71)">
<path d="M119.845 60.3372C119.845 27.0059 93.0251 0 59.9225 0C26.8202 0 0 27.0059 0 60.3372C0 90.4526 21.9129 115.415 50.5596 119.945V77.7791H35.3375V60.3372H50.5596V47.0437C50.5596 31.9229 59.4998 23.5705 73.1926 23.5705C79.7505 23.5705 86.6074 24.7481 86.6074 24.7481V39.5891H79.0495C71.6074 39.5891 69.2858 44.241 69.2858 49.0119V60.3372H85.9043L83.2466 77.7791H69.2858V119.945C97.9324 115.415 119.845 90.4526 119.845 60.3372Z" fill="#005CE7"/>
</g>
<defs>
<clipPath id="clip0_5_71">
<rect width="120" height="120" fill="white"/>
</clipPath>
</defs>
</svg>
