<svg width="120" height="120" viewBox="0 0 120 120" fill="none" xmlns="http://www.w3.org/2000/svg">
<path d="M60.0132 29.2335C42.9872 29.2335 29.2538 42.97 29.2538 60C29.2538 77.03 42.9872 90.7664 60.0132 90.7664C77.0396 90.7664 90.7732 77.03 90.7732 60C90.7732 42.97 77.0396 29.2335 60.0132 29.2335ZM60.0132 80.0024C49.0104 80.0024 40.0156 71.032 40.0156 60C40.0156 48.968 48.984 39.9978 60.0132 39.9978C71.0428 39.9978 80.0112 48.968 80.0112 60C80.0112 71.032 71.016 80.0024 60.0132 80.0024ZM99.206 27.975C99.206 31.9648 95.9932 35.1512 92.0312 35.1512C88.0424 35.1512 84.8568 31.938 84.8568 27.975C84.8568 24.012 88.0692 20.7988 92.0312 20.7988C95.9932 20.7988 99.206 24.012 99.206 27.975ZM119.578 35.2583C119.123 25.6454 116.928 17.1304 109.887 10.1149C102.873 3.09941 94.3604 0.903717 84.7496 0.421732C74.8444 -0.140578 45.1556 -0.140578 35.2504 0.421732C25.6665 0.87694 17.1534 3.07263 10.1127 10.0882C3.07195 17.1036 0.903512 25.6186 0.42164 35.2315C-0.140547 45.1388 -0.140547 74.8344 0.42164 84.7416C0.876744 94.3544 3.07195 102.87 10.1127 109.885C17.1534 116.9 25.6397 119.096 35.2504 119.578C45.1556 120.14 74.8444 120.14 84.7496 119.578C94.3604 119.123 102.873 116.927 109.887 109.885C116.901 102.87 119.096 94.3544 119.578 84.7416C120.14 74.8344 120.14 45.1656 119.578 35.2583ZM106.782 95.372C104.694 100.62 100.652 104.664 95.3776 106.779C87.4804 109.912 68.7408 109.189 60.0132 109.189C51.286 109.189 32.5198 109.885 24.6492 106.779C19.4021 104.69 15.3597 100.647 13.2448 95.372C10.1127 87.4728 10.8355 68.7292 10.8355 60C10.8355 51.2708 10.1394 32.5003 13.2448 24.6279C15.333 19.3797 19.3754 15.3364 24.6492 13.221C32.5466 10.0881 51.286 10.8111 60.0132 10.8111C68.7408 10.8111 87.5068 10.1149 95.3776 13.221C100.625 15.3096 104.667 19.3529 106.782 24.6279C109.914 32.527 109.191 51.2708 109.191 60C109.191 68.7292 109.914 87.4996 106.782 95.372Z" fill="url(#paint0_linear_5_74)"/>
<defs>
<linearGradient id="paint0_linear_5_74" x1="60" y1="0" x2="60" y2="120" gradientUnits="userSpaceOnUse">
<stop stop-color="#DC05FF"/>
<stop offset="1" stop-color="#FF0000" stop-opacity="0"/>
</linearGradient>
</defs>
</svg>
