<svg width="120" height="120" viewBox="0 0 120 120" fill="none" xmlns="http://www.w3.org/2000/svg">
<g clip-path="url(#clip0_5_75)">
<rect width="120" height="120" fill="#2ED0F3"/>
<path d="M107.665 29.9062C107.742 31.2186 107.742 32.5313 107.742 33.8437C107.742 73.8748 82.9952 120 37.7666 120C23.8325 120 10.8884 115.031 0 106.406C1.97977 106.688 3.88314 106.781 5.93908 106.781C17.4364 106.781 28.0204 102 36.4722 93.844C25.66 93.5624 16.599 84.844 13.4771 72.8436C15 73.1248 16.5228 73.3124 18.122 73.3124C20.33 73.3124 22.5383 72.9372 24.594 72.2812C13.325 69.4684 4.87292 57.2812 4.87292 42.5624V42.1876C8.14692 44.4376 11.9544 45.844 15.9896 46.0312C9.3652 40.5936 5.02524 31.3124 5.02524 20.8123C5.02524 15.1874 6.24332 10.0312 8.37544 5.53112C20.4821 23.9061 38.6802 35.9059 59.086 37.2186C58.7056 34.9686 58.4772 32.6251 58.4772 30.2813C58.4772 13.5936 69.4416 0 83.0712 0C90.1524 0 96.548 3.65624 101.041 9.56248C106.599 8.25004 111.929 5.71868 116.65 2.25002C114.822 9.28144 110.939 15.1877 105.838 18.9374C110.787 18.2815 115.584 16.5936 120 14.2501C116.65 20.2498 112.462 25.5934 107.665 29.9062Z" fill="white"/>
<path d="M107.665 29.9062C107.742 31.2186 107.742 32.5313 107.742 33.8437C107.742 73.8748 82.9952 120 37.7666 120C23.8325 120 10.8884 115.031 0 106.406C1.97977 106.688 3.88314 106.781 5.93908 106.781C17.4364 106.781 28.0204 102 36.4722 93.844C25.66 93.5624 16.599 84.844 13.4771 72.8436C15 73.1248 16.5228 73.3124 18.122 73.3124C20.33 73.3124 22.5383 72.9372 24.594 72.2812C13.325 69.4684 4.87292 57.2812 4.87292 42.5624V42.1876C8.14692 44.4376 11.9544 45.844 15.9896 46.0312C9.3652 40.5936 5.02524 31.3124 5.02524 20.8123C5.02524 15.1874 6.24332 10.0312 8.37544 5.53112C20.4821 23.9061 38.6802 35.9059 59.086 37.2186C58.7056 34.9686 58.4772 32.6251 58.4772 30.2813C58.4772 13.5936 69.4416 0 83.0712 0C90.1524 0 96.548 3.65624 101.041 9.56248C106.599 8.25004 111.929 5.71868 116.65 2.25002C114.822 9.28144 110.939 15.1877 105.838 18.9374C110.787 18.2815 115.584 16.5936 120 14.2501C116.65 20.2498 112.462 25.5934 107.665 29.9062Z" stroke="white"/>
</g>
<defs>
<clipPath id="clip0_5_75">
<rect width="120" height="120" fill="white"/>
</clipPath>
</defs>
</svg>
