<svg width="150" height="120" viewBox="0 0 150 120" fill="none" xmlns="http://www.w3.org/2000/svg">
<g clip-path="url(#clip0_5_78)">
<path d="M146.865 18.7759C145.14 11.3853 140.058 5.56469 133.604 3.58937C121.906 0 75 0 75 0C75 0 28.0939 0 16.396 3.58937C9.94235 5.56502 4.85951 11.3853 3.1344 18.7759C0 32.1719 0 60.1214 0 60.1214C0 60.1214 0 88.0704 3.1344 101.467C4.85951 108.857 9.94235 114.435 16.396 116.411C28.0939 120 75 120 75 120C75 120 121.906 120 133.604 116.411C140.058 114.435 145.14 108.857 146.865 101.467C150 88.0704 150 60.1214 150 60.1214C150 60.1214 150 32.1719 146.865 18.7759ZM59.6588 85.4971V34.7453L98.8634 60.1219L59.6588 85.4971Z" fill="#FB0000"/>
</g>
<defs>
<clipPath id="clip0_5_78">
<rect width="150" height="120" fill="white"/>
</clipPath>
</defs>
</svg>
